<?xml version="1.0" standalone="no"?>
<!DOCTYPE svg PUBLIC "-//W3C//DTD SVG 20010904//EN"
 "http://www.w3.org/TR/2001/REC-SVG-20010904/DTD/svg10.dtd">
<svg version="1.0" xmlns="http://www.w3.org/2000/svg"
 width="704.000000pt" height="704.000000pt" viewBox="0 0 704.000000 704.000000"
 preserveAspectRatio="xMidYMid meet">
<metadata>
Created by potrace 1.14, written by Peter Selinger 2001-2017
</metadata>
<g transform="translate(0.000000,704.000000) scale(0.100000,-0.100000)"
fill="#000000" stroke="none">
<path d="M805 7022 c-42 -30 -56 -104 -56 -289 -1 -150 5 -222 32 -388 26
-167 96 -471 140 -610 5 -16 23 -75 40 -130 96 -306 273 -679 406 -854 18 -24
33 -48 33 -53 0 -6 -13 -39 -30 -74 -16 -36 -41 -97 -54 -137 -22 -64 -30 -97
-52 -202 -14 -65 -12 -330 2 -409 51 -284 182 -492 434 -690 33 -25 137 -85
178 -101 37 -15 57 -35 34 -35 -22 0 -233 -234 -268 -298 -1 -1 -13 2 -28 7
-31 12 -53 6 -61 -19 -4 -14 -14 -17 -41 -15 -32 3 -37 0 -50 -30 -7 -19 -11
-40 -9 -48 4 -10 -3 -13 -29 -11 -21 2 -41 -3 -50 -12 -19 -18 -6 -60 53 -167
l39 -72 -24 -28 c-34 -39 -30 -63 14 -91 42 -28 198 -76 247 -76 l32 0 -18
-67 c-22 -79 -65 -270 -74 -328 -54 -351 -61 -527 -29 -688 4 -19 1 -27 -8
-27 -20 0 -126 -57 -181 -97 -75 -55 -137 -139 -137 -185 0 -160 0 -157 19
-168 11 -5 31 -10 46 -10 14 0 40 -7 57 -16 97 -50 463 4 705 105 40 16 83 28
95 26 13 -2 70 -6 128 -9 271 -16 274 -16 450 -78 519 -182 734 -239 950 -252
18 -2 32 -16 57 -58 89 -153 290 -307 408 -314 28 -1 68 -5 89 -8 36 -4 43 -1
74 32 52 57 66 90 68 167 4 110 -39 271 -105 394 l-18 33 37 87 c42 98 71 206
86 321 3 25 7 56 10 70 2 14 7 88 10 165 l6 140 39 35 c22 19 39 41 39 49 0 8
-20 44 -44 80 -41 60 -45 73 -51 146 -4 44 -9 83 -11 86 -6 10 1 16 215 193
168 140 190 161 178 175 -41 49 -144 167 -153 176 -6 5 -56 62 -112 126 l-101
116 22 20 c35 31 262 192 379 268 59 39 109 75 111 80 3 6 -23 49 -58 95 l-62
85 18 42 c52 122 61 340 19 458 -11 33 -23 67 -26 75 -13 39 804 314 1246 419
74 18 153 38 175 44 l40 12 -2 325 c-5 652 -4 1278 1 1387 3 62 2 114 -2 117
-8 5 -183 -42 -237 -64 -16 -6 -32 -11 -35 -11 -15 2 -443 -152 -527 -190 -23
-10 -44 -19 -47 -19 -3 0 -83 -33 -178 -74 -262 -113 -395 -174 -743 -347
-217 -108 -294 -148 -464 -240 -30 -16 -58 -29 -62 -29 -9 0 -211 201 -207
206 2 1 26 13 53 26 61 29 130 69 210 121 66 44 207 147 215 158 3 3 34 30 70
60 205 168 589 573 703 739 17 25 34 47 37 50 19 14 160 236 200 315 64 126
66 185 6 210 -77 32 -350 -22 -566 -112 -68 -28 -249 -119 -305 -152 -27 -17
-57 -34 -65 -38 -67 -35 -270 -181 -403 -291 -98 -81 -338 -318 -423 -417 -60
-71 -224 -283 -274 -354 -24 -35 -40 -49 -52 -45 -132 40 -427 49 -603 19
-108 -19 -201 -41 -270 -63 -44 -14 -82 -26 -85 -26 -15 -2 -153 -64 -210 -94
-68 -36 -199 -125 -237 -161 l-22 -21 -6 38 c-26 162 -102 454 -151 582 -182
474 -407 861 -637 1096 -102 105 -167 142 -202 116z"/>
</g>
</svg>
